# xmcd
#
# Track frame offsets:
# 150
# 18553
# 41067
# 59891
# 80666
# 106355
# 158697
# 180955
# 206963
# 249116
# 271649
# 298777
# 314799
#
# Disc length: 4411 seconds
#
# Revision: 0
# Processed by: cddbd v1.5.1PL0 Copyright (c) Steve Scherf et al.
# Submitted via: Audion 3.0.2 (http://www.panic.com/audion/)
#
DISCID=bc11390d
DTITLE=Miscellaneous - Classic Blues
DYEAR=1900
DGENRE=
TTITLE0=A Month of Sundays
TTITLE1=My Baby's Sweeter
TTITLE2=Big Bad Blues Train
TTITLE3=Oh Lord, Things are Gettin' Crazy Up In Here
TTITLE4=21t Century Gypsy Singin' Lover Man
TTITLE5=I Need An Angel
TTITLE6=Just As I Am
TTITLE7=Master Charge
TTITLE8=If Trouble Was Money
TTITLE9=I Feel So Bad
TTITLE10=Betty and Dupree
TTITLE11=Mailbox Blues
TTITLE12=Midnight Creeper
EXTD=
EXTT0=
EXTT1=
EXTT2=
EXTT3=
EXTT4=
EXTT5=
EXTT6=
EXTT7=
EXTT8=
EXTT9=
EXTT10=
EXTT11=
EXTT12=
PLAYORDER=
